<svg xmlns="http://www.w3.org/2000/svg" viewBox="0 0 32 32" fill="none">
  <path d="M16 2.5c3.2 3.8 5.2 8 5.6 12.5.4 4.5-.8 8.8-3.6 12.5l-.6-.8c-2-2.8-2.8-6-2.4-9.3.4-3.6 1.8-7 4-9.9l.6-.8c-1.2-1.4-2.3-2.8-3.6-4.2z" fill="#13AA52"/>
  <path d="M16 2.5c-1.3 1.4-2.4 2.8-3.6 4.2l.6.8c2.2 2.9 3.6 6.3 4 9.9.3 2.5-.1 5-1.2 7.3l-.8 1.8c.5.3 1 .5 1.5.7.1-.2.2-.3.3-.5 2.8-3.7 4-8 3.6-12.5-.4-4.5-2.4-8.7-5.6-12.5l1.2 3.5z" fill="#10824A"/>
  <path d="M15.5 27.3c-.1 1 0 2 .2 3l.1.7h.4l.1-.7c.2-1 .3-2 .2-3-.3-.1-.5-.2-.8-.3-.1.1-.1.2-.2.3z" fill="#B8C4C2"/>
</svg>
