<?xml version="1.0" encoding="UTF-8"?>
<svg id="Layer_2" data-name="Layer 2" xmlns="http://www.w3.org/2000/svg" viewBox="0 0 806.46 140.97">
  <defs>
    <style>
      .cls-1 {
        fill: #ffcb51;
      }

      .cls-2 {
        fill: #161616;
      }
    </style>
  </defs>
  <g id="Layer_1-2" data-name="Layer 1">
    <g>
      <path class="cls-1" d="m56.16,125.94c-3.7-20.99-20.14-37.43-41.13-41.13h0c-4.74-.83-9.21-3.55-12.19-8.18-3.79-5.89-3.79-13.35,0-19.24,2.98-4.63,7.45-7.34,12.18-8.17h0c17.48-3.08,31.16-16.76,34.24-34.24h0c.79-4.52,3.31-8.8,7.57-11.78,6.02-4.2,14.13-4.28,20.21-.17,9.76,6.6,10.69,19.97,2.8,27.86-2.73,2.73-6.11,4.4-9.64,5.02h0c-7.52,1.33-14.35,4.62-19.92,9.34-7.36,6.23-4.74,18.17,4.52,20.88,19.37,5.67,40.7,3.23,58.68-7.67,7.37-4.48,17.25-3.21,23.2,3.81,5.66,6.68,5.64,16.66-.04,23.32-2.88,3.38-6.67,5.41-10.65,6.11h0c-17.48,3.08-31.16,16.77-34.24,34.24h0c-.83,4.73-3.55,9.2-8.17,12.18-5.89,3.79-13.35,3.79-19.24,0-4.63-2.98-7.34-7.45-8.17-12.18h0Zm23.5-23.51c5.78-2.4,10.91-6.04,15.05-10.59,4.58-5.04,2.61-13.14-3.78-15.49-11.93-4.39-24.81-5.6-37.31-3.53-7.49,1.24-10.61,10.34-5.55,16.01,5.44,6.09,12.33,10.85,20.14,13.76,3.71,1.38,7.79,1.36,11.45-.15Z"/>
      <g>
        <path class="cls-2" d="m202.58,69.69c0,19.39,15.83,35.21,35.21,35.21h42.2v-22.15c0-11.61-9.5-21.1-21.1-21.1h-26.64v9.1h26.64c6.73,0,12,5.28,12,12v13.06h-33.1c-14.38,0-25.98-11.74-25.98-26.11,0-13.58,10.95-24.53,24.53-24.53h43.65v-9.1h-43.65c-18.59,0-33.76,15.03-33.76,33.63Z"/>
        <path class="cls-2" d="m358.6,83.41c0,6.73-5.54,12.4-12.4,12.4h-34.29c-6.86,0-12.4-5.67-12.4-12.4v-47.34h-9.23v47.34c0,11.87,9.76,21.5,21.63,21.5h34.29c11.87,0,21.5-9.63,21.5-21.5v-47.34h-9.1v47.34Z"/>
        <path class="cls-2" d="m387.08,83.28c0-6.86,5.54-12.53,12.4-12.53h34.42v-9.1h-38.64c-4.62,0-8.18-3.69-8.18-8.31s3.56-8.18,8.18-8.18h46.15v-9.1h-46.15c-9.5,0-17.41,7.78-17.41,17.27,0,5.8,2.77,10.81,6.99,13.98-4.22,4.09-6.99,9.63-6.99,15.96,0,11.87,9.76,21.63,21.63,21.63h55.78v-9.1h-55.78c-6.86,0-12.4-5.67-12.4-12.53Z"/>
        <path class="cls-2" d="m524.73,36.06h-69.37c0,5.03,4.07,9.1,9.1,9.1h60.83c4.53,0,8.04,3.43,8.17,7.91.14,4.71-3.96,8.57-8.68,8.57h-29.3c-16.75,0-30.33,13.58-30.33,30.2v13.06h9.23v-13.06c0-11.61,9.36-21.1,21.1-21.1h29.8c10.11,0,18.27-8.97,17.18-19.27-.95-8.88-8.81-15.42-17.74-15.42Z"/>
        <path class="cls-2" d="m552.46,66.26v38.64h9.23v-38.64c0-11.6,9.5-21.1,21.1-21.1h37.98v24.92h-46.68v9.23h46.68v25.58h9.1V36.06h-47.08c-16.75,0-30.33,13.58-30.33,30.2Z"/>
        <path class="cls-2" d="m718.1,53.34c0-9.5-7.78-17.27-17.28-17.27h-60.14v9.1h60.14c4.62,0,8.18,3.56,8.18,8.18s-3.56,8.31-8.18,8.31h-29.94c-16.62,0-30.2,13.58-30.2,30.2v13.06h9.23v-13.06c0-11.61,9.36-21.1,21.1-21.1h16.62c11.6,0,21.36,9.76,21.36,21.36v12.79h9.1v-12.79c0-9.1-3.96-17.14-10.29-22.81,6.2-2.77,10.29-8.7,10.29-15.96Z"/>
        <path class="cls-2" d="m772.84,36.06h-43.78v9.1h43.78c13.45,0,24.53,11.08,24.53,24.53,0,14.38-11.74,26.11-25.98,26.11h-33.1v-38.11h-9.23v47.21h42.33c19.39,0,35.08-15.82,35.08-35.21s-15.03-33.63-33.63-33.63Z"/>
      </g>
    </g>
  </g>
</svg>